<svg width="13" height="17" viewBox="0 0 13 17" fill="none" xmlns="http://www.w3.org/2000/svg">
<path d="M5.61882 17C4.62837 17 3.77156 16.8065 3.04837 16.4194C2.34091 16.0168 1.75136 15.475 1.27972 14.7937C0.8238 14.097 0.48579 13.3151 0.265691 12.4481C0.0613133 11.5656 -0.0251542 10.6521 0.00628855 9.70765C0.069174 8.02004 0.383601 6.56466 0.949571 5.34153C1.51554 4.1184 2.23086 3.11202 3.09554 2.3224C3.96021 1.53279 4.88777 0.952185 5.87822 0.580601C6.88439 0.193534 7.85125 0 8.77881 0C9.56488 0 10.2723 0.131603 10.9012 0.394808C11.5458 0.642531 12.0567 1.01412 12.434 1.50956C12.8113 1.98953 13 2.57787 13 3.27459C13 3.81648 12.8349 4.3429 12.5048 4.85382C12.1903 5.34927 11.703 5.75956 11.0427 6.0847C10.3981 6.39435 9.56488 6.54918 8.54299 6.54918C8.71593 6.05373 8.8417 5.62022 8.9203 5.24863C8.99891 4.87705 9.03821 4.55965 9.03821 4.29645C9.03821 3.75455 8.91244 3.39071 8.6609 3.20492C8.40936 3.00364 8.09493 2.90301 7.71762 2.90301C7.2617 2.90301 6.82936 3.06557 6.42061 3.39071C6.01185 3.71585 5.6424 4.1571 5.31225 4.71448C4.99782 5.25637 4.74628 5.8602 4.55762 6.52596C4.36897 7.19171 4.25892 7.86521 4.22748 8.54645C4.16459 10.265 4.41613 11.5656 4.9821 12.4481C5.54807 13.3306 6.27911 13.7719 7.17523 13.7719C7.86697 13.7719 8.62946 13.4932 9.46269 12.9358C10.3116 12.3784 11.1449 11.5346 11.9624 10.4044L12.269 10.5437C12.0646 11.9372 11.6165 13.1138 10.9248 14.0738C10.233 15.0337 9.41553 15.7614 8.47225 16.2568C7.54468 16.7523 6.59354 17 5.61882 17Z" fill="url(#paint0_linear_2095_5)"/>
<defs>
<linearGradient id="paint0_linear_2095_5" x1="0" y1="0" x2="16.4061" y2="12.5459" gradientUnits="userSpaceOnUse">
<stop stop-color="#FFA1AD"/>
<stop offset="1" stop-color="#A50036"/>
</linearGradient>
</defs>
</svg>
