<svg width="28" height="28" viewBox="0 0 28 28" fill="none" xmlns="http://www.w3.org/2000/svg">
<path d="M9.73352 7.00004C9.7339 7.48848 9.70904 7.97661 9.65904 8.46248C9.45903 10.3907 8.85818 12.2558 7.89504 13.9382L7.8592 13.9998C7.84716 14.0205 7.8354 14.0412 7.82364 14.0619L7.82168 14.065C6.8603 15.7467 6.26081 17.6107 6.0616 19.5376C6.05824 19.5678 6.05544 19.5984 6.05236 19.6289C6.01353 20.0304 5.99169 20.4368 5.98684 20.848V20.8547C5.98684 20.9033 5.98684 20.9517 5.98684 21C5.98479 22.7429 6.30911 24.4708 6.94304 26.0944C4.8535 24.8719 3.11467 23.131 1.89464 21.0401V21C1.89464 20.9515 1.89464 20.9031 1.89464 20.8547C1.8945 20.8525 1.8945 20.8502 1.89464 20.848C1.89893 20.4373 1.92068 20.031 1.95988 19.6289C1.96296 19.5984 1.96604 19.5678 1.96912 19.5379C2.16829 17.6123 2.7672 15.7495 3.72752 14.0686L3.7292 14.0661L3.73088 14.063L3.76784 14C3.77988 13.9796 3.79192 13.9592 3.80368 13.9384C5.01157 11.8258 5.64513 9.43362 5.64132 7.00004C5.64236 5.70865 5.46484 4.42332 5.1138 3.18056C6.12583 2.34805 7.2497 1.6617 8.45252 1.1416C9.29927 2.97843 9.73637 4.97744 9.73352 7.00004Z" fill="#262626"/>
<path d="M13.8272 7.00001C13.8272 7.05078 13.8272 7.10146 13.8272 7.15205C13.8223 7.59426 13.7975 8.03106 13.7527 8.46245C13.5529 10.3905 12.9524 12.2556 11.9898 13.9381L11.954 13.9997C11.9419 14.0204 11.9299 14.0412 11.9184 14.0619C11.9184 14.0619 11.9184 14.0638 11.9165 14.0647C10.9551 15.7466 10.3555 17.6106 10.1561 19.5376C10.1113 19.9688 10.0865 20.4056 10.0816 20.848L10.0584 20.8513L10.0813 20.8547C10.0813 20.9031 10.0813 20.9516 10.0813 21C10.0776 23.3943 10.691 25.7492 11.8621 27.8376C10.1275 27.5721 8.45882 26.9805 6.94421 26.0943C6.31039 24.4708 5.98616 22.7429 5.98829 21C5.98829 20.9515 5.98829 20.903 5.98829 20.8547V20.848C5.99277 20.4373 6.01461 20.0309 6.05381 19.6288C6.05689 19.5983 6.05969 19.5678 6.06305 19.5376C6.26226 17.6107 6.86176 15.7467 7.82313 14.065L7.82509 14.0619C7.83685 14.0412 7.84861 14.0204 7.86065 13.9997L7.89649 13.9381C8.85954 12.2557 9.46029 10.3906 9.66021 8.46245C9.71022 7.97658 9.73508 7.48844 9.73469 7.00001C9.73755 4.97741 9.30044 2.97839 8.45369 1.14157C9.59626 0.648138 10.7999 0.310335 12.0324 0.137207C13.2127 2.23165 13.831 4.59587 13.8272 7.00001Z" fill="#404040"/>
<path d="M17.9202 7C17.9202 7.04844 17.9202 7.09688 17.9202 7.14532C17.9203 7.14756 17.9203 7.1498 17.9202 7.15204C17.9153 7.59425 17.8905 8.03105 17.8457 8.46244C17.6462 10.3905 17.0459 12.2556 16.0834 13.9381L16.0475 13.9997C16.0355 14.0204 16.024 14.0412 16.012 14.0619L16.0103 14.0647C15.0489 15.7465 14.4493 17.6106 14.2499 19.5376C14.2051 19.9688 14.1803 20.4056 14.1755 20.848C14.1755 20.8985 14.1755 20.9492 14.1755 21C14.1716 23.4041 14.7899 25.7683 15.9703 27.8628C14.6075 28.0538 13.2241 28.0453 11.8638 27.8376C10.6916 25.7495 10.0774 23.3946 10.0802 21C10.0802 20.9516 10.0802 20.9031 10.0802 20.8547C10.08 20.8524 10.08 20.8502 10.0802 20.848C10.085 20.4057 10.1099 19.9689 10.1547 19.5376C10.3541 17.6106 10.9537 15.7466 11.915 14.0647C11.915 14.0647 11.915 14.0627 11.917 14.0619C11.9285 14.0412 11.9405 14.0204 11.9525 13.9997L11.9884 13.9381C12.9507 12.2555 13.5509 10.3905 13.7504 8.46244C13.7952 8.03124 13.82 7.59444 13.8249 7.15204C13.8249 7.10126 13.8249 7.05058 13.8249 7C13.8294 4.59606 13.2119 2.23185 12.0323 0.137199C13.3951 -0.0538218 14.7785 -0.0453327 16.1388 0.162399C17.3102 2.25071 17.9237 4.60561 17.9202 7Z" fill="#595959"/>
<path d="M22.0127 6.99971C22.0127 7.04806 22.0127 7.0965 22.0127 7.14503V7.15175C22.0082 7.56242 21.9864 7.96879 21.9472 8.37087C21.9441 8.40139 21.9413 8.43191 21.938 8.46215C21.7387 10.3902 21.1385 12.2554 20.1759 13.9378C20.1642 13.9585 20.1521 13.979 20.1401 13.9994L20.1048 14.0616L20.1031 14.0644C19.141 15.7461 18.5408 17.6102 18.3408 19.5373C18.2908 20.0231 18.2659 20.5113 18.2663 20.9997C18.2635 23.0223 18.7006 25.0213 19.5473 26.8581C18.4048 27.3516 17.2011 27.6894 15.9686 27.8625C14.7883 25.7681 14.17 23.4038 14.1738 20.9997C14.1738 20.9491 14.1738 20.8984 14.1738 20.8477C14.1787 20.4055 14.2035 19.9687 14.2483 19.5373C14.4477 17.6103 15.0473 15.7462 16.0087 14.0644L16.0104 14.0616C16.0224 14.0409 16.0339 14.0201 16.0459 13.9994L16.0818 13.9378C17.0443 12.2553 17.6446 10.3902 17.8441 8.46215C17.8889 8.03095 17.9137 7.59415 17.9186 7.15175L17.9418 7.14839L17.9188 7.14503C17.9188 7.09659 17.9188 7.04815 17.9188 6.99971C17.923 4.60549 17.3101 2.2506 16.1394 0.162109C17.8739 0.427729 19.5424 1.01923 21.0568 1.90539C21.6906 3.52894 22.0149 5.25682 22.0127 6.99971Z" fill="#7F7F7F"/>
<path d="M27.9997 13.9604V13.9999C27.9997 18.3587 26.0081 22.2518 22.8849 24.8194C22.38 23.0294 22.2356 21.157 22.4602 19.3107C22.6848 17.4645 23.2739 15.6813 24.1934 14.0646L24.1951 14.0618C24.2068 14.0411 24.2186 14.0204 24.2306 13.9996L24.2665 13.938C25.2288 12.2554 25.829 10.3902 26.0285 8.46209C26.0316 8.43213 26.0347 8.40161 26.0377 8.37109C26.0767 7.96957 26.0985 7.5632 26.103 7.15197C26.1031 7.14973 26.1031 7.14749 26.103 7.14525C26.103 7.0969 26.103 7.04846 26.103 6.99993V6.96045C26.1369 7.01925 26.1707 7.07805 26.2038 7.13713C26.2088 7.14525 26.2133 7.15393 26.2178 7.16233C26.397 7.48116 26.5636 7.80782 26.7176 8.14233C26.8331 8.39321 26.9415 8.64792 27.0427 8.90645C27.2052 9.32197 27.348 9.74682 27.4711 10.181C27.8189 11.4108 27.9968 12.6824 27.9997 13.9604Z" fill="#BFBFBF"/>
<path d="M5.64228 7.00014C5.64605 9.43363 5.01248 11.8257 3.80464 13.9383C3.79288 13.959 3.78084 13.9794 3.7688 13.9999L3.73324 14.062L3.73156 14.0651L3.72988 14.0676C2.76931 15.7488 2.17031 17.612 1.9712 19.538C1.96812 19.5679 1.96504 19.5985 1.96196 19.629C1.92332 20.0305 1.90157 20.4369 1.89672 20.8481C1.89658 20.8503 1.89658 20.8526 1.89672 20.8548C1.89672 20.9034 1.89672 20.9518 1.89672 21.0001V21.0396C1.86284 20.9808 1.82896 20.922 1.79592 20.8629C1.79088 20.8548 1.7864 20.8461 1.78192 20.8377C1.60272 20.5187 1.43612 20.1921 1.28212 19.8577C1.16639 19.6069 1.05803 19.3522 0.95704 19.0936C0.794267 18.6781 0.651467 18.2532 0.52864 17.8188C0.180834 16.5891 0.00296974 15.3176 0 14.0396L0 14.0001C0 9.64138 1.99164 5.74826 5.11476 3.18066C5.4658 4.42342 5.64333 5.70876 5.64228 7.00014Z" fill="#141414"/>
<path d="M26.1045 6.9606V7.00008C26.1045 7.04843 26.1045 7.09687 26.1045 7.1454C26.1047 7.14764 26.1047 7.14988 26.1045 7.15212C26.1004 7.56279 26.0787 7.96916 26.0393 8.37124C26.0362 8.40176 26.0331 8.43228 26.03 8.46224C25.8305 10.3904 25.2304 12.2556 24.268 13.9382L24.2322 13.9998C24.2201 14.0205 24.2084 14.0412 24.1966 14.062L24.1949 14.0648C23.2755 15.6814 22.6864 17.4647 22.4617 19.3109C22.2371 21.1571 22.3815 23.0296 22.8865 24.8196C21.8744 25.6521 20.7506 26.3384 19.5478 26.8585C18.7006 25.0218 18.2631 23.0228 18.2656 21.0001C18.2652 20.5116 18.2901 20.0235 18.3401 19.5376C18.5397 17.6106 19.1396 15.7465 20.1013 14.0648L20.103 14.062L20.1386 13.9998C20.1506 13.9794 20.1626 13.9589 20.1744 13.9382C21.137 12.2557 21.7372 10.3906 21.9364 8.46252C21.9398 8.43228 21.9426 8.40176 21.9457 8.37124C21.9847 7.96972 22.0065 7.56335 22.0112 7.15212L22.0347 7.14876L22.0112 7.1454C22.0112 7.09705 22.0112 7.04861 22.0112 7.00008C22.0136 5.25725 21.6897 3.52937 21.0561 1.90576C23.1458 3.12829 24.8847 4.86936 26.1045 6.9606Z" fill="#A6A6A6"/>
</svg>
