<svg width="23" height="16" viewBox="0 0 23 16" fill="none" xmlns="http://www.w3.org/2000/svg">
<path d="M3.00721 0.193643C3.16545 0.308936 3.30615 0.44023 3.44492 0.578087C3.56345 0.69376 3.68925 0.799657 3.81574 0.906441C3.90905 0.985226 4.0014 1.06502 4.09362 1.14508C4.27843 1.30457 4.46814 1.45731 4.6595 1.60884C4.89571 1.79653 5.12803 1.98905 5.36117 2.18056C5.45047 2.25363 5.53978 2.3267 5.6291 2.39976C5.91898 2.63721 6.208 2.8757 6.49705 3.11418C6.79749 3.36201 7.09856 3.60905 7.40002 3.85564C7.54421 3.97375 7.68838 4.09187 7.83255 4.21C7.92428 4.28514 8.01604 4.36026 8.10783 4.43534C8.44289 4.70952 8.77701 4.98484 9.11097 5.26038C9.41141 5.50821 9.71248 5.75525 10.0139 6.00184C10.1098 6.08035 10.2056 6.15887 10.3015 6.2374C10.3489 6.27627 10.3964 6.31514 10.4452 6.35518C10.8765 6.70852 11.3078 7.06186 11.7391 7.41519C12.0414 7.20183 12.312 6.96279 12.5838 6.71199C12.7684 6.54514 12.9603 6.38897 13.1537 6.23249C13.327 6.09052 13.4972 5.94525 13.6669 5.799C13.9311 5.57128 14.1964 5.3449 14.4629 5.11977C14.6734 4.94167 14.8826 4.76197 15.0915 4.58195C15.3038 4.39909 15.5176 4.21869 15.7352 4.04212C16.0021 3.82525 16.2611 3.60007 16.5201 3.3739C16.7101 3.2084 16.9019 3.04592 17.0977 2.88723C17.3608 2.67379 17.6164 2.45249 17.8718 2.22986C18.1675 1.97221 18.4662 1.7183 18.7659 1.46542C18.9059 1.34732 19.0457 1.22905 19.1855 1.11073C19.2131 1.08744 19.2406 1.06416 19.269 1.04017C19.4227 0.909915 19.5759 0.779001 19.7285 0.64738C19.7617 0.618799 19.7949 0.590217 19.829 0.56077C19.8931 0.505479 19.9571 0.450111 20.0211 0.394657C20.406 0.062449 20.6487 0.0533924 21.1492 0.0867008C21.791 0.185749 22.2825 0.508924 22.6653 1.02894C22.9434 1.46157 22.9948 1.93206 22.9926 2.43627C22.9928 2.48625 22.993 2.53623 22.9932 2.58772C22.9937 2.75407 22.9935 2.92041 22.9933 3.08676C22.9936 3.20649 22.9938 3.32622 22.9941 3.44595C22.9948 3.77042 22.9949 4.09488 22.9947 4.41935C22.9947 4.69057 22.9949 4.96178 22.9952 5.233C22.9958 5.90964 22.9958 6.58628 22.9954 7.26292C22.9952 7.84943 22.9957 8.43593 22.9967 9.02243C22.9978 9.6258 22.9982 10.2292 22.998 10.8325C22.9979 11.1708 22.998 11.5091 22.9988 11.8474C22.9994 12.1656 22.9993 12.4839 22.9986 12.8021C22.9985 12.9186 22.9986 13.0351 22.9991 13.1516C23.0043 14.6578 23.0043 14.6578 22.5085 15.2672C22.4822 15.2999 22.4559 15.3327 22.4288 15.3665C22.1209 15.7109 21.7014 15.9104 21.2538 16C20.788 16 20.3222 16 19.8423 16C19.8164 10.5586 19.8164 10.5586 19.79 5.00726C19.0977 5.52693 19.0977 5.52693 18.415 6.05848C17.762 6.57523 17.1017 7.08289 16.4413 7.59023C16.1103 7.84482 15.7803 8.10066 15.4509 8.35743C15.0156 8.69675 14.5787 9.03378 14.1411 9.37C13.81 9.6246 13.48 9.88044 13.1506 10.1372C12.4758 10.6633 12.4758 10.6633 12.1455 10.9152C12.0543 10.9856 11.964 11.0573 11.8751 11.1308C11.8208 11.175 11.8208 11.175 11.7653 11.2201C11.7356 11.2452 11.706 11.2702 11.6754 11.296C11.5823 11.3412 11.5823 11.3412 11.4598 11.3387C11.2756 11.2726 11.15 11.1597 11.0072 11.0304C10.9467 10.9773 10.886 10.9243 10.8253 10.8715C10.7946 10.8448 10.7639 10.818 10.7323 10.7905C10.5692 10.6517 10.3982 10.5238 10.2277 10.3944C9.99564 10.2174 9.76915 10.0342 9.54344 9.8493C9.29357 9.64467 9.04212 9.44329 8.7854 9.24732C8.49183 9.02321 8.20549 8.7912 7.91975 8.5572C7.65162 8.3382 7.3787 8.12683 7.10351 7.91678C6.90719 7.76558 6.71592 7.60836 6.52436 7.45118C6.23785 7.2162 5.94733 6.98785 5.65197 6.76414C5.3055 6.50156 4.96884 6.22901 4.63464 5.95099C4.30798 5.6798 3.97387 5.42142 3.63598 5.1643C3.41171 4.99156 3.18743 4.81881 2.95636 4.64084C2.93911 8.38936 2.92186 12.1379 2.90409 16C1.19598 16 1.19598 16 0.603837 15.4242C-0.0308927 14.7571 -0.00161966 14.0271 0.00171701 13.1582C0.00143338 13.0342 0.00106089 12.9103 0.000606607 12.7863C-0.000344085 12.4508 2.17491e-05 12.1153 0.000685779 11.7798C0.00105852 11.57 0.000987161 11.3603 0.000792473 11.1505C0.00076043 11.1155 0.000728366 11.0806 0.000695352 11.0447C0.000628487 10.9737 0.000560658 10.9028 0.000491937 10.8318C-0.00010323 10.1678 0.000579451 9.50382 0.00170485 8.83982C0.00263901 8.27105 0.00247678 7.70229 0.0015128 7.13353C0.000391724 6.47177 -4.57775e-05 5.81002 0.00059524 5.14826C0.000661847 5.07759 0.000727612 5.00692 0.000792473 4.93625C0.000824733 4.90148 0.000856953 4.86672 0.000890191 4.8309C0.00107015 4.58685 0.00075701 4.3428 0.000273965 4.09875C-0.000331688 3.7698 9.18458e-05 3.44086 0.00129742 3.11191C0.00157307 2.99144 0.00149597 2.87097 0.00103338 2.75051C-0.00180234 1.93679 0.0143157 1.28208 0.603837 0.662511C1.15942 0.122257 2.28637 -0.243173 3.00721 0.193643Z" fill="white" fill-opacity="0.58"/>
</svg>
