<svg width="19" height="19" viewBox="0 0 19 19" fill="none" xmlns="http://www.w3.org/2000/svg">
<path d="M18.1776 7.5146C19.2741 8.61111 19.2741 10.3889 18.1776 11.4854L11.4854 18.1776C10.3889 19.2741 8.61111 19.2741 7.5146 18.1776L0.82238 11.4854C-0.274126 10.3889 -0.274127 8.61111 0.822379 7.5146L7.5146 0.82238C8.61111 -0.274126 10.3889 -0.274127 11.4854 0.822379L18.1776 7.5146ZM9.46642 13.5136C8.62778 13.5136 7.94793 14.1935 7.94793 15.0321C7.94795 15.8707 8.62779 16.5506 9.46642 16.5506C10.3051 16.5506 10.9849 15.8707 10.9849 15.0321C10.9849 14.1935 10.3051 13.5136 9.46642 13.5136ZM9.46642 2.45442C8.62779 2.45442 7.94795 3.13423 7.94793 3.97286V10.2761C7.94795 11.1147 8.62779 11.7946 9.46642 11.7946C10.3051 11.7946 10.9849 11.1147 10.9849 10.2761V3.97291C10.9849 3.13427 10.3051 2.45442 9.46642 2.45442Z" fill="#E7B267"/>
</svg>
