<svg width="23" height="19" viewBox="0 0 23 19" fill="none" xmlns="http://www.w3.org/2000/svg">
<path d="M22.6229 0.184166C22.8827 0.433255 22.991 0.717622 23 1.07502C23.0004 1.63235 22.8973 2.15039 22.7758 2.69291C22.7537 2.79469 22.7317 2.89648 22.7097 2.99829C22.6503 3.27282 22.5898 3.54711 22.5291 3.82136C22.4712 4.08405 22.4141 4.34691 22.357 4.60978C22.2513 5.09667 22.1451 5.58345 22.0384 6.07014C21.8844 6.7725 21.7321 7.47519 21.5807 8.17809C21.5695 8.23037 21.5582 8.28264 21.5466 8.33649C21.5012 8.54724 21.4558 8.75799 21.4104 8.96874C21.3311 9.33703 21.2515 9.70527 21.1718 10.0735C21.1604 10.1262 21.149 10.1789 21.1372 10.2332C21.114 10.3404 21.0908 10.4477 21.0676 10.555C20.8647 11.492 20.663 12.4292 20.4621 13.3666C20.4113 13.6039 20.3603 13.8413 20.3094 14.0786C20.2986 14.1285 20.2986 14.1285 20.2877 14.1794C20.2518 14.3463 20.216 14.5133 20.1801 14.6803C20.103 15.0388 20.0262 15.3975 19.9496 15.7561C19.8974 16.0007 19.845 16.2451 19.7923 16.4896C19.7618 16.631 19.7316 16.7724 19.7015 16.9138C19.6686 17.0684 19.6354 17.2228 19.602 17.3772C19.5926 17.4217 19.5833 17.4661 19.5737 17.5119C19.4741 17.9674 19.3453 18.5311 18.955 18.8334C18.6671 19.0036 18.3938 19.0306 18.0677 18.9717C17.6094 18.848 17.2574 18.5599 16.8835 18.2829C16.8136 18.232 16.7436 18.1811 16.6736 18.1303C16.5304 18.0262 16.3875 17.9219 16.2447 17.8173C16.0402 17.6679 15.8343 17.5204 15.628 17.3735C15.1709 17.048 14.718 16.7168 14.265 16.3856C14.1579 16.3074 14.0508 16.2291 13.9437 16.1509C13.9087 16.1254 13.8738 16.0999 13.8378 16.0736C13.5894 15.8925 13.3395 15.7136 13.0889 15.5354C12.8249 15.3476 12.5634 15.1576 12.3098 14.9559C12.1461 15.046 12.0208 15.1431 11.89 15.2755C11.8539 15.3117 11.8178 15.3479 11.7806 15.3852C11.7435 15.4228 11.7063 15.4605 11.6681 15.4994C11.4384 15.7314 11.2085 15.9576 10.9592 16.169C10.8198 16.2904 10.6909 16.4217 10.5611 16.5529C10.3706 16.7436 10.1792 16.9285 9.97137 17.101C9.87213 17.1884 9.78339 17.2834 9.69235 17.3791C9.4852 17.5851 9.24287 17.788 8.93626 17.7983C8.90023 17.7979 8.86421 17.7975 8.82709 17.7971C8.77258 17.7967 8.77258 17.7967 8.71696 17.7962C8.68926 17.7958 8.66156 17.7954 8.63302 17.795C8.67316 16.8824 8.72206 15.9707 8.78108 15.0591C8.7973 14.808 8.81269 14.5569 8.82627 14.3057C8.83959 14.0596 8.85497 13.8138 8.87179 13.568C8.87778 13.4751 8.88306 13.3822 8.88757 13.2893C8.92777 12.4776 8.92777 12.4776 9.20885 12.2249C9.28493 12.1727 9.36203 12.1218 9.44013 12.0726C9.51592 12.0072 9.59079 11.9408 9.66432 11.8729C10.1127 11.4737 10.1127 11.4737 10.2245 11.3742C10.3004 11.3066 10.3763 11.2389 10.4522 11.1712C10.6201 11.0213 10.7882 10.8718 10.9591 10.7251C11.137 10.5719 11.3103 10.414 11.4838 10.2559C11.6357 10.1178 11.7897 9.98267 11.9455 9.84904C12.0685 9.74166 12.1892 9.6318 12.3098 9.52188C12.4873 9.36023 12.6664 9.20076 12.8486 9.04432C13.0297 8.88776 13.2075 8.72756 13.386 8.56815C13.4607 8.5016 13.5354 8.43506 13.6102 8.36853C13.6472 8.33559 13.6842 8.30266 13.7223 8.26872C14.0586 7.96929 14.0586 7.96929 14.1703 7.86983C14.2463 7.80219 14.3222 7.73449 14.398 7.66675C14.566 7.51686 14.7341 7.36738 14.9049 7.22072C15.0828 7.06753 15.2562 6.90954 15.4297 6.7515C15.5815 6.6134 15.7355 6.47825 15.8914 6.34462C16.0144 6.23725 16.135 6.12739 16.2557 6.01747C16.4332 5.85581 16.6123 5.69634 16.7945 5.53991C16.9755 5.38334 17.1533 5.22315 17.3318 5.06373C17.4066 4.99718 17.4813 4.93064 17.556 4.86411C17.593 4.83118 17.63 4.79824 17.6681 4.7643C17.7802 4.6645 17.8923 4.56469 18.0044 4.46488C18.0411 4.43217 18.0778 4.39946 18.1157 4.36576C18.1932 4.29678 18.2709 4.22794 18.3486 4.15921C18.4585 4.06193 18.5679 3.96419 18.677 3.86602C18.7027 3.84303 18.7285 3.82005 18.755 3.79636C18.8232 3.73468 18.8232 3.73468 18.9012 3.64422C18.9012 3.60031 18.9012 3.55639 18.9012 3.51114C18.6263 3.42525 18.4319 3.52959 18.1838 3.64422C18.046 3.71952 17.9145 3.80267 17.783 3.8882C17.7081 3.93598 17.6331 3.98374 17.5581 4.0315C17.5016 4.06782 17.5016 4.06782 17.4439 4.10487C17.2701 4.21607 17.095 4.32522 16.9199 4.43438C16.8852 4.45606 16.8505 4.47775 16.8147 4.50009C16.3914 4.76454 15.9666 5.02665 15.5419 5.28893C15.3164 5.42819 15.0911 5.56757 14.8657 5.70695C14.776 5.7624 14.6863 5.81785 14.5966 5.8733C14.5523 5.90074 14.5079 5.92819 14.4621 5.95647C10.8301 8.20218 10.8301 8.20218 10.6956 8.28539C10.6061 8.34073 10.5166 8.39607 10.4271 8.45141C10.2001 8.59175 9.97316 8.73205 9.74612 8.87226C9.33715 9.12487 8.92836 9.37774 8.52092 9.63278C8.29292 9.77549 8.0647 9.91784 7.83607 10.0596C7.79131 10.0874 7.74655 10.1152 7.70043 10.1439C7.60849 10.2005 7.51614 10.2565 7.4234 10.3119C7.16249 10.4686 6.92608 10.6307 6.70002 10.8342C6.23388 11.157 6.23388 11.157 5.92715 11.1257C5.754 11.0811 5.58634 11.0263 5.4179 10.9672C5.35345 10.946 5.28893 10.9251 5.22436 10.9042C5.08662 10.8596 4.9492 10.8142 4.81194 10.7682C4.48618 10.6598 4.15725 10.5613 3.82869 10.4616C3.6411 10.4044 3.45376 10.3465 3.2664 10.2886C3.19103 10.2654 3.11566 10.2421 3.04029 10.2188C3.00282 10.2073 2.96535 10.1957 2.92674 10.1838C2.77214 10.1361 2.61751 10.0884 2.46288 10.0408C2.31157 9.99418 2.16027 9.94751 2.00898 9.90082C1.93797 9.87892 1.86695 9.85703 1.79593 9.83515C1.57874 9.76823 1.3617 9.70082 1.14486 9.63278C1.06681 9.60837 1.06681 9.60837 0.987193 9.58347C0.939997 9.56837 0.8928 9.55327 0.844174 9.53772C0.803947 9.52491 0.763722 9.5121 0.722277 9.49891C0.45475 9.39799 0.173799 9.26172 0.0238751 9.01175C-0.0188758 8.80133 -0.0112607 8.58967 0.105146 8.40457C0.427904 8.03918 0.911019 7.86475 1.35784 7.69759C1.42094 7.67353 1.48401 7.64942 1.54708 7.62528C1.7296 7.55559 1.91241 7.48665 2.09527 7.41782C2.27786 7.34901 2.4603 7.27983 2.64276 7.21069C3.11491 7.03179 3.58727 6.85343 4.05976 6.67541C4.6204 6.46417 5.18071 6.25209 5.74089 6.03965C6.29114 5.83101 6.84148 5.62261 7.39206 5.4148C7.44286 5.39562 7.49366 5.37645 7.546 5.35669C7.64969 5.31756 7.75338 5.27842 7.85707 5.23929C8.71405 4.91583 9.57063 4.59134 10.4266 4.26526C11.2304 3.95904 12.0347 3.65411 12.8395 3.35034C12.8911 3.33085 12.9428 3.31136 12.996 3.29127C13.0996 3.25217 13.2032 3.21307 13.3068 3.17396C13.3575 3.1548 13.4083 3.13564 13.4606 3.11589C13.5111 3.09685 13.5615 3.0778 13.6135 3.05818C14.116 2.86847 14.6184 2.67839 15.1207 2.4881C15.1632 2.47199 15.2058 2.45587 15.2496 2.43927C15.7455 2.2514 16.2412 2.06312 16.7367 1.87434C16.7848 1.85599 16.833 1.83764 16.8827 1.81873C16.931 1.80029 16.9794 1.78186 17.0293 1.76287C17.0779 1.74437 17.1264 1.72587 17.1765 1.7068C17.274 1.66963 17.3716 1.63246 17.4692 1.59528C18.3124 1.27405 19.1568 0.955845 20.0019 0.639557C20.4302 0.479101 20.8575 0.317125 21.2817 0.146174C21.7402 -0.0320154 22.1868 -0.0780613 22.6229 0.184166Z" fill="white" fill-opacity="0.58"/>
</svg>
