<svg width="23" height="23" viewBox="0 0 23 23" fill="none" xmlns="http://www.w3.org/2000/svg">
<path d="M6.37373 0.00549074C6.49762 0.0052781 6.62151 0.00502478 6.74541 0.00473408C7.04581 0.0041497 7.34621 0.00402331 7.64662 0.00413805C7.89108 0.00422552 8.13555 0.00413894 8.38001 0.00393167C8.43241 0.00388805 8.43241 0.00388805 8.48586 0.00384355C8.55684 0.00378434 8.62782 0.00372503 8.6988 0.0036656C9.36303 0.0031354 10.0273 0.00323938 10.6915 0.00353783C11.2975 0.0037902 11.9035 0.00324075 12.5094 0.00231164C13.1335 0.00136228 13.7575 0.000962007 14.3815 0.00114513C14.7312 0.00123816 15.0808 0.0011208 15.4304 0.000426238C15.7594 -0.000220796 16.0884 -9.07236e-05 16.4174 0.000544024C16.5375 0.000658994 16.6577 0.000528216 16.7779 0.000122735C18.5967 -0.00556691 20.1064 0.483481 21.4177 1.77771C22.1554 2.51404 22.6664 3.49623 22.8834 4.51363C22.8915 4.55109 22.8997 4.58856 22.908 4.62715C23.0153 5.20479 22.9952 5.78847 22.9945 6.37373C22.9947 6.49762 22.995 6.62151 22.9953 6.74541C22.9959 7.04581 22.996 7.34621 22.9959 7.64662C22.9958 7.89108 22.9959 8.13555 22.9961 8.38001C22.9961 8.41494 22.9961 8.44987 22.9962 8.48586C22.9962 8.55684 22.9963 8.62782 22.9963 8.6988C22.9969 9.36303 22.9968 10.0273 22.9965 10.6915C22.9962 11.2975 22.9968 11.9035 22.9977 12.5094C22.9986 13.1335 22.999 13.7575 22.9989 14.3815C22.9988 14.7312 22.9989 15.0808 22.9996 15.4304C23.0002 15.7594 23.0001 16.0884 22.9995 16.4174C22.9993 16.5375 22.9995 16.6577 22.9999 16.7779C23.0056 18.5967 22.5165 20.1064 21.2223 21.4177C20.486 22.1554 19.5038 22.6664 18.4864 22.8834C18.4489 22.8915 18.4114 22.8997 18.3728 22.908C17.7952 23.0153 17.2115 22.9952 16.6263 22.9945C16.5024 22.9947 16.3785 22.995 16.2546 22.9953C15.9542 22.9959 15.6538 22.996 15.3534 22.9959C15.1089 22.9958 14.8645 22.9959 14.62 22.9961C14.5676 22.9961 14.5676 22.9961 14.5141 22.9962C14.4432 22.9962 14.3722 22.9963 14.3012 22.9963C13.637 22.9969 12.9727 22.9968 12.3085 22.9965C11.7025 22.9962 11.0965 22.9968 10.4906 22.9977C9.86653 22.9986 9.2425 22.999 8.61846 22.9989C8.26884 22.9988 7.91923 22.9989 7.56961 22.9996C7.24062 23.0002 6.91164 23.0001 6.58264 22.9995C6.46245 22.9993 6.34226 22.9995 6.22208 22.9999C4.40333 23.0056 2.89356 22.5165 1.58229 21.2223C0.844646 20.486 0.333639 19.5038 0.116621 18.4864C0.108481 18.4489 0.100341 18.4114 0.0919539 18.3728C-0.0152623 17.7952 0.00482642 17.2115 0.00549102 16.6263C0.00527838 16.5024 0.00502506 16.3785 0.00473436 16.2546C0.00414998 15.9542 0.00402324 15.6538 0.00413798 15.3534C0.00422545 15.1089 0.0041395 14.8645 0.00393223 14.62C0.00390315 14.5851 0.00387347 14.5501 0.00384351 14.5141C0.00378431 14.4432 0.00372552 14.3722 0.00366609 14.3012C0.00313589 13.637 0.00323941 12.9727 0.00353787 12.3085C0.00379023 11.7025 0.00324066 11.0965 0.00231155 10.4906C0.00136219 9.86653 0.000962505 9.24249 0.00114563 8.61846C0.00123865 8.26884 0.0011208 7.91923 0.000426238 7.56961C-0.000220796 7.24062 -9.07236e-05 6.91163 0.000544024 6.58264C0.000658994 6.46245 0.000528309 6.34226 0.000122828 6.22208C-0.00556682 4.40333 0.483481 2.89356 1.77771 1.58229C2.51404 0.844646 3.49623 0.333639 4.51363 0.116621C4.5511 0.108481 4.58856 0.10034 4.62715 0.0919535C5.20479 -0.0152627 5.78847 0.00482614 6.37373 0.00549074ZM16.1749 3.89378C15.7761 4.39652 15.6479 4.95696 15.7016 5.58846C15.8126 6.1369 16.1116 6.6413 16.581 6.95642C17.115 7.26614 17.6373 7.39116 18.253 7.26654C18.7906 7.10491 19.2484 6.78994 19.532 6.30087C19.8176 5.75361 19.9102 5.2015 19.7291 4.59913C19.5049 4.0071 19.1221 3.60716 18.5543 3.34281C17.7128 2.97842 16.7887 3.23152 16.1749 3.89378ZM7.44498 6.761C7.40486 6.79362 7.36474 6.82624 7.32341 6.85985C7.03229 7.10622 6.79782 7.38775 6.56557 7.68925C6.53232 7.73151 6.49907 7.77377 6.46481 7.81731C5.44001 9.16436 5.10418 10.848 5.32739 12.5118C5.51743 13.6542 6.0273 14.6696 6.761 15.555C6.80993 15.6152 6.80993 15.6152 6.85985 15.6766C7.10626 15.9678 7.38787 16.202 7.68926 16.4344C7.73095 16.4677 7.77264 16.5009 7.81559 16.5352C9.09285 17.5171 10.7478 17.8769 12.3267 17.6911C13.5386 17.5295 14.6185 17.015 15.555 16.239C15.5951 16.2064 15.6353 16.1738 15.6766 16.1401C15.9678 15.8937 16.202 15.6121 16.4344 15.3107C16.4677 15.2691 16.5009 15.2274 16.5352 15.1844C17.5378 13.8803 17.8504 12.2319 17.6901 10.6211C17.5308 9.43096 16.9985 8.36153 16.239 7.44498C16.2064 7.40486 16.1738 7.36474 16.1401 7.32341C15.8938 7.03229 15.6122 6.79782 15.3107 6.56557C15.2685 6.53232 15.2262 6.49907 15.1827 6.46481C12.8657 4.70212 9.63819 4.94368 7.44498 6.761Z" fill="white" fill-opacity="0.58"/>
<path d="M14.3337 8.37321C14.3895 8.42205 14.3895 8.42205 14.4464 8.47188C15.2102 9.18537 15.6491 10.2389 15.7115 11.2736C15.7273 12.4565 15.368 13.4903 14.5779 14.3825C14.5509 14.4136 14.5239 14.4447 14.4961 14.4767C13.7871 15.2402 12.7212 15.6557 11.6958 15.7092C10.5661 15.7399 9.51796 15.3758 8.66639 14.6267C8.62917 14.5942 8.59195 14.5616 8.5536 14.5281C7.78697 13.8119 7.34678 12.7528 7.28851 11.7139C7.27449 10.5727 7.61083 9.53306 8.37326 8.66634C8.40582 8.62912 8.43838 8.5919 8.47192 8.55356C10.0114 6.90558 12.6836 6.92168 14.3337 8.37321Z" fill="white" fill-opacity="0.58"/>
</svg>
