<svg width="23" height="23" viewBox="0 0 23 23" fill="none" xmlns="http://www.w3.org/2000/svg">
<path d="M21.1801 8.42491C21.2152 8.45514 21.2502 8.48537 21.2862 8.51652C21.3166 8.54259 21.347 8.56866 21.3783 8.59552C22.2287 9.38295 22.6137 10.5925 22.8215 11.6974C22.8283 11.7331 22.8351 11.7687 22.842 11.8055C22.9767 12.5815 23.0027 13.3619 22.9998 14.1476C22.9998 14.2449 22.9998 14.3422 22.9998 14.4395C22.9999 14.7006 22.9993 14.9616 22.9987 15.2226C22.9981 15.4965 22.9981 15.7705 22.998 16.0445C22.9977 16.5618 22.997 17.0792 22.9961 17.5966C22.9949 18.2967 22.9944 18.9968 22.9939 19.6969C22.993 20.798 22.9912 21.899 22.9896 23C21.4068 23 19.824 23 18.1933 23C18.1916 22.3722 18.1899 21.7444 18.1882 21.0976C18.1869 20.6989 18.1855 20.3002 18.1839 19.9015C18.1815 19.2693 18.1792 18.6371 18.1778 18.0048C18.1767 17.5442 18.1752 17.0837 18.1732 16.6231C18.1721 16.3796 18.1713 16.136 18.171 15.8924C18.1707 15.6625 18.1698 15.4326 18.1685 15.2027C18.1681 15.119 18.1679 15.0352 18.168 14.9515C18.1686 14.004 18.1101 12.8693 17.4267 12.1374C16.9468 11.6886 16.3881 11.5395 15.7391 11.5461C15.6688 11.5465 15.6688 11.5465 15.5971 11.547C14.8876 11.5616 14.2965 11.7619 13.7747 12.2514C13.037 13.0749 12.9731 14.2671 12.9742 15.3184C12.9738 15.4029 12.9733 15.4874 12.9728 15.5719C12.9716 15.7984 12.9711 16.0248 12.9709 16.2513C12.9705 16.489 12.9693 16.7268 12.9682 16.9646C12.9662 17.4135 12.965 17.8624 12.9639 18.3113C12.9625 18.9189 12.96 19.5264 12.9576 20.134C12.9538 21.0893 12.9514 22.0447 12.9487 23C11.366 23 9.78317 23 8.15243 23C8.15243 17.9393 8.15243 12.8786 8.15243 7.66455C9.66125 7.66455 11.1701 7.66455 12.7246 7.66455C12.7394 8.33043 12.7542 8.99631 12.7694 9.68237C12.9026 9.49001 13.0357 9.29764 13.1729 9.09945C13.4852 8.708 13.8404 8.39969 14.2487 8.11295C14.3007 8.07585 14.3007 8.07585 14.3537 8.03799C16.2801 6.77593 19.4215 6.96434 21.1801 8.42491Z" fill="white" fill-opacity="0.58"/>
<path d="M0.39765 7.66453C1.98043 7.66453 3.56321 7.66453 5.19396 7.66453C5.19396 12.7252 5.19396 17.7859 5.19396 23C3.61118 23 2.02839 23 0.39765 23C0.39765 17.9393 0.39765 12.8786 0.39765 7.66453Z" fill="white" fill-opacity="0.58"/>
<path d="M3.89406 0.220998C3.95777 0.249524 3.95777 0.249524 4.02276 0.278626C4.33829 0.435787 4.58656 0.646013 4.83539 0.893606C4.87258 0.928461 4.87258 0.928461 4.91051 0.96402C5.08028 1.13889 5.18521 1.34807 5.29485 1.56341C5.31017 1.59339 5.32549 1.62336 5.34128 1.65424C5.62963 2.24342 5.66144 3.01081 5.47976 3.64009C5.19174 4.40672 4.70714 5.01139 3.9613 5.37205C3.22475 5.67538 2.49117 5.69632 1.74245 5.4225C0.994241 5.10103 0.515534 4.54861 0.183718 3.81892C-0.0460873 3.212 -0.0681794 2.43629 0.16218 1.82527C0.180729 1.78418 0.199277 1.74308 0.218387 1.70074C0.237398 1.65825 0.256408 1.61577 0.275995 1.57199C0.433103 1.25636 0.643258 1.008 0.890767 0.759084C0.913996 0.734287 0.937224 0.70949 0.961157 0.683942C1.13596 0.514111 1.34508 0.409149 1.56035 0.299469C1.59031 0.284145 1.62027 0.26882 1.65114 0.253031C2.3167 -0.0729167 3.21797 -0.0843449 3.89406 0.220998Z" fill="white" fill-opacity="0.58"/>
</svg>
