<svg width="23" height="23" viewBox="0 0 23 23" fill="none" xmlns="http://www.w3.org/2000/svg">
<path d="M10.9306 0.00219086C10.9709 0.00187672 11.0113 0.00156259 11.0528 0.00123893C11.1822 0.000459745 11.3116 0.000170732 11.4409 9.15706e-05C11.4852 6.13525e-05 11.5294 3.11339e-05 11.5749 0C12.2239 0.000705158 12.8543 0.0205582 13.4928 0.145642C13.5337 0.153089 13.5746 0.160536 13.6168 0.168209C15.2326 0.465465 16.768 1.11988 18.1061 2.07139C18.1347 2.09151 18.1633 2.11162 18.1928 2.13235C18.6796 2.4771 19.1131 2.86415 19.5394 3.28057C19.5895 3.32886 19.6396 3.37714 19.6897 3.42543C19.9755 3.70342 20.2343 3.99636 20.48 4.31062C20.5143 4.35259 20.5485 4.39456 20.5839 4.43781C21.741 5.88312 22.4788 7.64791 22.809 9.46087C22.8163 9.49829 22.8237 9.53572 22.8312 9.57428C23.0683 10.8158 23.0508 12.2527 22.809 13.4915C22.8018 13.5317 22.7946 13.5718 22.7872 13.6132C22.4676 15.3791 21.7171 17.0484 20.6143 18.4626C20.5842 18.5022 20.5541 18.5418 20.523 18.5826C19.9809 19.2808 19.3404 19.9352 18.6436 20.4779C18.6017 20.5122 18.5598 20.5464 18.5166 20.5817C17.0713 21.7389 15.3059 22.4765 13.4928 22.8067C13.4554 22.8141 13.418 22.8214 13.3794 22.8289C12.1429 23.065 10.6951 23.0559 9.46181 22.8067C9.42047 22.7986 9.37912 22.7904 9.33652 22.782C8.80084 22.6738 8.27632 22.5373 7.75982 22.3589C7.7263 22.3475 7.69278 22.336 7.65824 22.3243C7.14811 22.1489 6.66813 21.9404 6.1922 21.6871C6.13844 21.6589 6.08467 21.6308 6.03089 21.6026C5.81883 21.4903 5.61489 21.3788 5.41959 21.2393C5.22735 21.1199 5.06278 21.1501 4.84852 21.1945C4.62239 21.2568 4.40015 21.3297 4.17756 21.4034C4.11222 21.4247 4.04688 21.4459 3.98152 21.4672C3.80971 21.5231 3.63805 21.5795 3.46643 21.636C3.29517 21.6923 3.12379 21.7482 2.95242 21.8041C2.75307 21.8692 2.55373 21.9343 2.35442 21.9995C1.97601 22.1234 1.5975 22.2468 1.21832 22.3683C1.17807 22.3813 1.13781 22.3943 1.09633 22.4077C0.828033 22.4932 0.828033 22.4932 0.727916 22.4932C0.827651 22.1038 0.951599 21.7243 1.08151 21.3441C1.10278 21.2814 1.12403 21.2188 1.14527 21.1562C1.20093 20.9922 1.25675 20.8282 1.31262 20.6643C1.36862 20.5 1.42447 20.3356 1.48032 20.1712C1.49121 20.1391 1.50209 20.1071 1.5133 20.0741C1.56692 19.9164 1.62048 19.7586 1.67394 19.6008C1.69432 19.5407 1.7147 19.4805 1.73508 19.4204C1.74484 19.3916 1.75459 19.3628 1.76464 19.3332C1.82237 19.1631 1.88103 18.9935 1.94044 18.8241C1.95353 18.7862 1.96663 18.7484 1.98012 18.7095C2.00312 18.6431 2.02648 18.5768 2.05029 18.5107C2.10214 18.3598 2.13721 18.254 2.07159 18.1043C2.02827 18.0239 2.02827 18.0239 1.97362 17.9455C1.94359 17.9004 1.94359 17.9004 1.91296 17.8543C1.89141 17.8223 1.86985 17.7903 1.84765 17.7572C0.743182 16.0781 0.012757 14.0533 0.00219107 12.0272C0.00187691 11.9869 0.00156274 11.9465 0.00123906 11.9048C0.000458523 11.775 0.000170683 11.6452 9.15795e-05 11.5154C6.13584e-05 11.471 3.1137e-05 11.4267 0 11.381C0.000704817 10.7312 0.0208301 10.1003 0.145657 9.46087C0.156471 9.40061 0.156471 9.40061 0.167504 9.33913C0.486983 7.57374 1.23712 5.90329 2.34033 4.48976C2.37099 4.44964 2.40164 4.40952 2.43323 4.36818C2.66918 4.06526 2.9266 3.78228 3.19132 3.5045C3.21693 3.47761 3.24253 3.45072 3.26892 3.42302C3.6276 3.04912 3.99596 2.70673 4.4124 2.3982C4.48948 2.34064 4.56529 2.28169 4.64102 2.22236C5.3972 1.63844 6.24751 1.17331 7.13277 0.817413C7.17141 0.801848 7.21005 0.786282 7.24986 0.770245C8.41575 0.308237 9.67187 0.00879414 10.9306 0.00219086ZM6.28178 5.47503C6.23657 5.5004 6.23657 5.5004 6.19045 5.52629C5.43125 6.02682 5.04681 6.93835 4.86742 7.79281C4.67669 9.26026 5.27088 10.6151 6.10262 11.7897C6.1367 11.838 6.1367 11.838 6.17147 11.8874C6.61105 12.5091 7.06503 13.1098 7.58067 13.6706C7.63313 13.7302 7.68539 13.7899 7.73743 13.8498C7.78967 13.9095 7.84193 13.9692 7.89419 14.0289C7.926 14.0655 7.95782 14.102 7.99059 14.1397C8.16965 14.3426 8.35018 14.5316 8.55728 14.7058C8.67485 14.8068 8.78643 14.9134 8.89915 15.0198C10.5204 16.5212 13.1023 17.9156 15.3619 17.89C16.2782 17.8298 17.217 17.3954 17.8374 16.716C18.2421 16.1888 18.3785 15.5095 18.3911 14.8578C18.3697 14.7096 18.3355 14.6388 18.2405 14.5215C18.1224 14.4402 17.9967 14.3777 17.8682 14.3144C17.8306 14.2953 17.7931 14.2763 17.7544 14.2566C17.6742 14.2159 17.5937 14.1755 17.5132 14.1354C17.3913 14.0746 17.27 14.0129 17.1488 13.9509C16.7269 13.7362 16.3015 13.5289 15.8723 13.3292C15.8321 13.3101 15.7919 13.291 15.7505 13.2713C15.4808 13.1477 15.2234 13.0409 14.9261 13.1276C14.6086 13.3525 14.3922 13.678 14.168 13.9908C14.0704 14.125 13.9706 14.2568 13.868 14.3872C13.8214 14.4468 13.8214 14.4468 13.7738 14.5076C13.6046 14.6797 13.4667 14.7401 13.226 14.7603C11.9438 14.706 10.4669 13.3548 9.62767 12.4999C9.4728 12.3309 9.33294 12.1503 9.19308 11.9688C9.16069 11.9272 9.1283 11.8856 9.09493 11.8427C8.26439 10.758 8.26439 10.758 8.27822 10.3622C8.34157 10.0461 8.6649 9.80061 8.87722 9.57341C9.11274 9.31848 9.35586 9.04878 9.38314 8.69085C9.37077 8.4975 9.31704 8.34283 9.24259 8.16666C9.22901 8.13333 9.21542 8.09999 9.20142 8.06565C9.15721 7.95761 9.11219 7.84993 9.06711 7.74226C9.03632 7.66773 9.00557 7.5932 8.97484 7.51865C8.88433 7.2998 8.79261 7.08149 8.7004 6.86336C8.68738 6.83253 8.67437 6.80171 8.66096 6.76995C8.5836 6.58701 8.50524 6.40453 8.42606 6.22237C8.40708 6.17845 8.38809 6.13452 8.36853 6.08927C8.19347 5.65595 8.19347 5.65595 7.88754 5.31933C7.37881 5.22596 6.73889 5.2135 6.28178 5.47503Z" fill="white" fill-opacity="0.58"/>
</svg>
