<svg width="23" height="15" viewBox="0 0 23 15" fill="none" xmlns="http://www.w3.org/2000/svg">
<path d="M11.4473 3.29677e-05C11.499 3.82848e-05 11.5507 4.36018e-05 11.604 4.90803e-05C17.3343 0.000792194 17.3343 0.0007922 19.8032 0.316816C19.854 0.323285 19.9048 0.329754 19.9571 0.336419C20.8124 0.45875 21.5539 0.793351 22.0892 1.44049C22.8451 2.44925 22.8674 3.88824 22.9433 5.07689C22.9454 5.10553 22.9474 5.13416 22.9494 5.16366C23.0017 5.91403 23.0005 6.66504 22.9998 7.41664C22.9998 7.44972 22.9998 7.4828 22.9998 7.51688C22.9993 8.49908 22.9963 9.47792 22.8958 10.4566C22.8925 10.4886 22.8893 10.5205 22.886 10.5534C22.6132 13.2349 22.6132 13.2349 21.6587 14.0135C20.3607 14.9646 18.3672 14.8423 16.7939 14.9083C16.7538 14.91 16.7136 14.9117 16.6723 14.9135C15.0068 14.9831 13.3403 15.0008 11.6733 15C11.602 15 11.602 15 11.5293 15C2.55921 14.9987 2.55921 14.9987 1.24909 13.7938C-0.443399 12.0732 0.041286 8.08912 0.13858 5.90767C0.321526 2.00672 0.321526 2.00672 1.41654 1.03392C1.85894 0.685671 2.3591 0.453736 2.92788 0.361276C2.97222 0.354005 3.01655 0.346733 3.06223 0.339241C4.12486 0.176985 5.21104 0.138046 6.2851 0.0917332C6.34422 0.0891582 6.34422 0.0891582 6.40453 0.0865311C6.71554 0.0732841 7.02661 0.0625863 7.33776 0.0528301C7.39903 0.0508989 7.46029 0.0489677 7.5234 0.0469781C8.83132 0.00669028 10.1388 -0.00056595 11.4473 3.29677e-05ZM9.28846 4.36552C9.28846 6.43428 9.28846 8.50304 9.28846 10.6345C9.47158 10.566 9.631 10.4956 9.80215 10.4066C9.85518 10.3791 9.9082 10.3516 9.96283 10.3233C10.0196 10.2936 10.0763 10.264 10.133 10.2343C10.1619 10.2193 10.1908 10.2042 10.2206 10.1887C10.6194 9.98086 11.0154 9.76907 11.4079 9.5511C12.2754 9.07005 13.1548 8.60727 14.0309 8.1401C14.2779 8.00834 14.5249 7.87644 14.7718 7.74454C14.8533 7.701 14.9349 7.65747 15.0164 7.61393C15.0498 7.59611 15.0832 7.57828 15.1176 7.55992C15.1525 7.54127 15.1525 7.54127 15.1881 7.52223C15.0487 7.42053 14.9055 7.33551 14.7521 7.25338C14.7033 7.22716 14.6545 7.20094 14.6042 7.17393C14.5516 7.14582 14.4989 7.1177 14.4447 7.08874C14.3892 7.05897 14.3337 7.02918 14.2782 6.99938C14.1629 6.93751 14.0476 6.87569 13.9323 6.8139C13.6686 6.6726 13.4055 6.5305 13.1423 6.38848C13.0391 6.33285 12.9359 6.27721 12.8326 6.22158C12.6277 6.11108 12.4227 6.0005 12.2179 5.88986C11.618 5.56606 11.0173 5.24364 10.4155 4.92311C10.3636 4.89546 10.3117 4.8678 10.2582 4.83931C10.2081 4.8126 10.1579 4.78589 10.1063 4.75837C9.90151 4.64821 9.69855 4.53528 9.49585 4.42188C9.39088 4.35851 9.39088 4.35851 9.28846 4.36552Z" fill="white" fill-opacity="0.58"/>
</svg>
